<svg width="80" height="80" viewBox="0 0 80 80" fill="none" xmlns="http://www.w3.org/2000/svg">
<rect x="0.5" y="0.5" width="79" height="79" rx="39.5" stroke="#334B57"/>
<path d="M40.1499 40.9751C40.0624 40.9626 39.9499 40.9626 39.8499 40.9751C37.6499 40.9001 35.8999 39.1001 35.8999 36.8876C35.8999 34.6251 37.7249 32.7876 39.9999 32.7876C42.2624 32.7876 44.0999 34.6251 44.0999 36.8876C44.0874 39.1001 42.3499 40.9001 40.1499 40.9751Z" stroke="#213946" stroke-opacity="0.9" stroke-width="1.6" stroke-linecap="round" stroke-linejoin="round"/>
<path d="M48.4252 49.225C46.2002 51.2625 43.2502 52.5 40.0002 52.5C36.7502 52.5 33.8002 51.2625 31.5752 49.225C31.7002 48.05 32.4502 46.9 33.7877 46C37.2127 43.725 42.8127 43.725 46.2127 46C47.5502 46.9 48.3002 48.05 48.4252 49.225Z" stroke="#213946" stroke-opacity="0.9" stroke-width="1.6" stroke-linecap="round" stroke-linejoin="round"/>
<path d="M40 52.5C46.9036 52.5 52.5 46.9036 52.5 40C52.5 33.0964 46.9036 27.5 40 27.5C33.0964 27.5 27.5 33.0964 27.5 40C27.5 46.9036 33.0964 52.5 40 52.5Z" stroke="#213946" stroke-opacity="0.9" stroke-width="1.6" stroke-linecap="round" stroke-linejoin="round"/>
</svg>
