<svg width="80" height="80" viewBox="0 0 80 80" fill="none" xmlns="http://www.w3.org/2000/svg">
<rect x="0.5" y="0.5" width="79" height="79" rx="39.5" stroke="#334B57"/>
<path d="M47.5 48.5749H46.55C45.55 48.5749 44.6 48.9624 43.9 49.6624L41.7625 51.7749C40.7875 52.7374 39.2 52.7374 38.225 51.7749L36.0875 49.6624C35.3875 48.9624 34.425 48.5749 33.4375 48.5749H32.5C30.425 48.5749 28.75 46.9125 28.75 44.8625V31.2249C28.75 29.1749 30.425 27.5125 32.5 27.5125H47.5C49.575 27.5125 51.25 29.1749 51.25 31.2249V44.8625C51.25 46.9 49.575 48.5749 47.5 48.5749Z" stroke="#213946" stroke-opacity="0.9" stroke-width="1.6" stroke-miterlimit="10" stroke-linecap="round" stroke-linejoin="round"/>
<path d="M40.35 43.7C40.1625 43.7625 39.85 43.7625 39.65 43.7C38.025 43.1375 34.375 40.825 34.375 36.8875C34.375 35.15 35.775 33.75 37.5 33.75C38.525 33.75 39.425 34.2375 40 35C40.575 34.2375 41.475 33.75 42.5 33.75C44.225 33.75 45.625 35.15 45.625 36.8875C45.6125 40.825 41.975 43.1375 40.35 43.7Z" stroke="#213946" stroke-opacity="0.9" stroke-width="1.6" stroke-linecap="round" stroke-linejoin="round"/>
</svg>
