<svg width="80" height="80" viewBox="0 0 80 80" fill="none" xmlns="http://www.w3.org/2000/svg">
<rect x="0.5" y="0.5" width="79" height="79" rx="39.5" stroke="#334B57"/>
<path d="M44.4877 40.325C48.0292 40.325 50.9002 37.454 50.9002 33.9125C50.9002 30.371 48.0292 27.5 44.4877 27.5C40.9462 27.5 38.0752 30.371 38.0752 33.9125C38.0752 37.454 40.9462 40.325 44.4877 40.325Z" stroke="#213946" stroke-opacity="0.9" stroke-width="1.6" stroke-miterlimit="10"/>
<path d="M32.9501 49.3001C35.0764 49.3001 36.8001 47.5764 36.8001 45.4501C36.8001 43.3238 35.0764 41.6001 32.9501 41.6001C30.8238 41.6001 29.1001 43.3238 29.1001 45.4501C29.1001 47.5764 30.8238 49.3001 32.9501 49.3001Z" stroke="#213946" stroke-opacity="0.9" stroke-width="1.6" stroke-miterlimit="10"/>
<path d="M45.7752 52.5001C47.5425 52.5001 48.9752 51.0674 48.9752 49.3001C48.9752 47.5328 47.5425 46.1001 45.7752 46.1001C44.0079 46.1001 42.5752 47.5328 42.5752 49.3001C42.5752 51.0674 44.0079 52.5001 45.7752 52.5001Z" stroke="#213946" stroke-opacity="0.9" stroke-width="1.6" stroke-miterlimit="10"/>
</svg>
