<svg width="60" height="60" viewBox="0 0 60 60" fill="none" xmlns="http://www.w3.org/2000/svg">
<rect x="0.842697" y="0.842697" width="58.3146" height="58.3146" rx="29.1573" stroke="#324A57" stroke-width="1.68539"/>
<path d="M22.9203 19.2138H37.7517C38.9877 19.2138 39.9989 20.225 39.9989 21.461V23.9329C39.9989 24.8318 39.4371 25.9554 38.8753 26.5172L34.0439 30.7868C33.3697 31.3486 32.9203 32.4722 32.9203 33.3711V38.2026C32.9203 38.8767 32.4708 39.7756 31.9091 40.1127L30.336 41.1239C28.8753 42.0228 26.8529 41.0116 26.8529 39.2138V33.2587C26.8529 32.4722 26.4034 31.461 25.954 30.8992L21.6843 26.4048C21.1225 25.843 20.6731 24.8318 20.6731 24.1576V21.5734C20.6731 20.225 21.6843 19.2138 22.9203 19.2138Z" stroke="#324A57" stroke-width="1.68539" stroke-miterlimit="10" stroke-linecap="round" stroke-linejoin="round"/>
<path d="M29.1331 19.2137L23.5938 28.0901" stroke="#324A57" stroke-width="1.68539" stroke-miterlimit="10" stroke-linecap="round" stroke-linejoin="round"/>
</svg>
