<svg width="60" height="60" viewBox="0 0 60 60" fill="none" xmlns="http://www.w3.org/2000/svg">
<rect x="0.842697" y="0.842697" width="58.3146" height="58.3146" rx="29.1573" stroke="#324A57" stroke-width="1.68539"/>
<path d="M37.6419 31.0675V35.2248C37.6419 38.7304 34.3722 41.5731 30.3385 41.5731C26.3048 41.5731 23.0352 38.7304 23.0352 35.2248V31.0675C23.0352 34.5731 26.3048 37.0787 30.3385 37.0787C34.3722 37.0787 37.6419 34.5731 37.6419 31.0675Z" stroke="#324A57" stroke-width="1.68539" stroke-linecap="round" stroke-linejoin="round"/>
<path d="M37.6419 25.4495C37.6419 26.472 37.361 27.4158 36.8666 28.2248C35.6644 30.2023 33.1925 31.4607 30.3385 31.4607C27.4846 31.4607 25.0127 30.2023 23.8104 28.2248C23.3161 27.4158 23.0352 26.472 23.0352 25.4495C23.0352 23.6967 23.8554 22.1124 25.17 20.9664C26.4958 19.8091 28.3161 19.1012 30.3385 19.1012C32.361 19.1012 34.1812 19.8091 35.5071 20.9551C36.8217 22.1124 37.6419 23.6967 37.6419 25.4495Z" stroke="#324A57" stroke-width="1.68539" stroke-linecap="round" stroke-linejoin="round"/>
<path d="M37.6419 25.4495V31.0675C37.6419 34.5731 34.3722 37.0787 30.3385 37.0787C26.3048 37.0787 23.0352 34.5731 23.0352 31.0675V25.4495C23.0352 21.9439 26.3048 19.1012 30.3385 19.1012C32.361 19.1012 34.1812 19.8091 35.5071 20.9551C36.8217 22.1124 37.6419 23.6967 37.6419 25.4495Z" stroke="#324A57" stroke-width="1.68539" stroke-linecap="round" stroke-linejoin="round"/>
</svg>
