<svg width="60" height="60" viewBox="0 0 60 60" fill="none" xmlns="http://www.w3.org/2000/svg">
<rect x="0.842697" y="0.842697" width="58.3146" height="58.3146" rx="29.1573" stroke="#324A57" stroke-width="1.68539"/>
<path d="M27.1478 29.0672C27.0354 29.056 26.9006 29.056 26.777 29.0672C24.1028 28.9774 21.9792 26.7863 21.9792 24.0897C21.9792 21.3369 24.204 19.101 26.968 19.101C29.7208 19.101 31.9568 21.3369 31.9568 24.0897C31.9455 26.7863 29.8219 28.9774 27.1478 29.0672Z" stroke="#324A57" stroke-width="1.68539" stroke-linecap="round" stroke-linejoin="round"/>
<path d="M35.2938 21.3481C37.4735 21.3481 39.2264 23.1122 39.2264 25.2807C39.2264 27.4043 37.541 29.1347 35.4398 29.2133C35.35 29.2021 35.2488 29.2021 35.1477 29.2133" stroke="#324A57" stroke-width="1.68539" stroke-linecap="round" stroke-linejoin="round"/>
<path d="M21.5296 33.2133C18.8105 35.0336 18.8105 37.9999 21.5296 39.8088C24.6194 41.8763 29.6869 41.8763 32.7768 39.8088C35.4959 37.9886 35.4959 35.0223 32.7768 33.2133C29.6981 31.1572 24.6307 31.1572 21.5296 33.2133Z" stroke="#324A57" stroke-width="1.68539" stroke-linecap="round" stroke-linejoin="round"/>
<path d="M37.4624 39.3257C38.2714 39.1571 39.0354 38.8313 39.6646 38.3482C41.4175 37.0335 41.4175 34.865 39.6646 33.5504C39.0467 33.0785 38.2939 32.7639 37.4961 32.5841" stroke="#324A57" stroke-width="1.68539" stroke-linecap="round" stroke-linejoin="round"/>
</svg>
