<svg width="216" height="76" viewBox="0 0 216 76" fill="none" xmlns="http://www.w3.org/2000/svg">
<g filter="url(#filter0_b_306_1740)">
<rect x="1.5" y="1.5" width="213" height="73" rx="36.5" stroke="#EA5258" stroke-width="3"/>
<g clip-path="url(#clip0_306_1740)">
<path fill-rule="evenodd" clip-rule="evenodd" d="M112.749 24.0806C112.749 24.8011 112.542 25.5053 112.154 26.1044C111.765 26.7034 111.214 27.1703 110.568 27.446C109.922 27.7218 109.212 27.7939 108.526 27.6533C107.841 27.5128 107.211 27.1658 106.717 26.6564C106.223 26.147 105.887 25.4979 105.75 24.7913C105.614 24.0846 105.684 23.3522 105.951 22.6866C106.219 22.021 106.672 21.452 107.253 21.0518C107.834 20.6515 108.517 20.4379 109.216 20.4379C109.68 20.4364 110.14 20.5296 110.57 20.7121C110.999 20.8947 111.389 21.1629 111.718 21.5015C112.046 21.84 112.306 22.2422 112.483 22.6848C112.66 23.1275 112.751 23.6018 112.749 24.0806ZM98.1721 31.4015V32.3025C97.5052 31.5587 96.6898 30.9728 95.782 30.5853C94.8743 30.1978 93.8958 30.0179 92.9141 30.058C91.5073 30.0423 90.112 30.3208 88.8125 30.8765C87.513 31.4322 86.3363 32.2536 85.3533 33.2912C84.3703 34.3288 83.6015 35.561 83.0933 36.9134C82.585 38.2659 82.348 39.7104 82.3963 41.1599C82.3465 42.6094 82.5821 44.0543 83.089 45.4072C83.5959 46.7602 84.3635 47.9933 85.3454 49.0319C86.3274 50.0706 87.5034 50.8933 88.8023 51.4503C90.1013 52.0074 91.4963 52.2873 92.9031 52.2732C93.8906 52.32 94.8757 52.1377 95.7857 51.7398C96.6957 51.3418 97.5075 50.7384 98.1612 49.9739V50.9281C98.1597 51.031 98.1783 51.1331 98.2158 51.2285C98.2533 51.3238 98.309 51.4105 98.3796 51.4832C98.4502 51.556 98.5342 51.6134 98.6267 51.6521C98.7192 51.6908 98.8183 51.7099 98.9181 51.7084H103.326V30.5841H98.9556C98.7566 30.5898 98.5672 30.6738 98.4265 30.819C98.2857 30.9641 98.2042 31.1593 98.1986 31.3645L98.1721 31.4015ZM98.1721 44.9105C97.6675 45.6271 97.0045 46.2095 96.238 46.6094C95.4715 47.0092 94.6236 47.215 93.7646 47.2097C90.2842 47.2097 87.6232 44.9652 87.6232 41.1599C87.6232 37.3547 90.2842 35.1102 93.7646 35.1102C94.6216 35.1168 95.4654 35.3279 96.23 35.7267C96.9947 36.1256 97.6594 36.7015 98.1721 37.4094V44.9233V44.9105ZM106.6 30.6195H111.86V51.6971H106.6V30.5841V30.6195ZM184.585 30.0564C183.603 30.0163 182.624 30.1962 181.717 30.5837C180.809 30.9712 179.993 31.557 179.327 32.3009V20.4717H174.067V51.6939H178.473C178.672 51.6883 178.861 51.6042 179.002 51.4591C179.143 51.314 179.224 51.1187 179.23 50.9136V49.9595C179.888 50.7152 180.699 51.3128 181.606 51.7101C182.512 52.1073 183.492 52.2946 184.477 52.2587C185.882 52.2698 187.276 51.9883 188.573 51.431C189.871 50.8737 191.046 50.0521 192.028 49.0154C193.01 47.9788 193.779 46.7484 194.289 45.398C194.798 44.0476 195.039 42.6051 194.995 41.1567C195.04 39.708 194.801 38.2649 194.291 36.9139C193.782 35.5629 193.013 34.332 192.031 33.295C191.048 32.2581 189.873 31.4365 188.575 30.8797C187.277 30.3229 185.883 30.0423 184.477 30.0547L184.585 30.0564ZM183.697 47.1566C182.836 47.1691 181.986 46.9665 181.218 46.5661C180.451 46.1656 179.789 45.5793 179.289 44.8574V37.3418C179.819 36.653 180.487 36.0907 181.248 35.6938C182.009 35.2968 182.844 35.0747 183.697 35.0426C187.177 35.0426 189.838 37.2871 189.838 41.0924C189.838 44.8976 187.177 47.1421 183.697 47.1421V47.1566ZM171.401 39.1986V51.7535H166.142V39.8261C166.142 36.3459 165.09 34.9477 162.115 34.9477C161.313 34.9764 160.526 35.1752 159.803 35.5314C159.079 35.8877 158.434 36.3939 157.909 37.0184V51.6988H152.649V30.5841H156.782C156.981 30.5898 157.17 30.6738 157.311 30.819C157.452 30.9641 157.533 31.1593 157.539 31.3645V32.2655C158.265 31.5205 159.131 30.937 160.084 30.5509C161.037 30.1649 162.057 29.9845 163.081 30.021C165.161 29.9417 167.195 30.66 168.792 32.037C170.643 33.609 171.347 35.625 171.347 39.16L171.401 39.1986ZM140.031 30.0596C139.049 30.0195 138.07 30.1994 137.163 30.5869C136.255 30.9744 135.439 31.5603 134.773 32.3041V20.4749H129.513V51.6939H133.92C134.119 51.6883 134.309 51.6042 134.45 51.4591C134.59 51.314 134.672 51.1187 134.677 50.9136V49.9595C135.337 50.7167 136.149 51.3152 137.058 51.7125C137.967 52.1098 138.949 52.2963 139.935 52.2587C141.341 52.2698 142.734 51.9883 144.032 51.431C145.329 50.8737 146.504 50.0521 147.486 49.0154C148.468 47.9788 149.237 46.7484 149.747 45.398C150.257 44.0476 150.497 42.6051 150.453 41.1567C150.508 39.7056 150.275 38.2583 149.769 36.9031C149.263 35.5479 148.494 34.3132 147.51 33.2743C146.526 32.2355 145.346 31.4142 144.044 30.8606C142.742 30.3071 141.344 30.0329 139.935 30.0547L140.031 30.0596ZM139.154 47.1566C138.293 47.1691 137.443 46.9665 136.675 46.5661C135.908 46.1656 135.246 45.5793 134.746 44.8574V37.3418C135.276 36.653 135.944 36.0907 136.705 35.6938C137.466 35.2968 138.301 35.0747 139.154 35.0426C142.634 35.0426 145.295 37.2871 145.295 41.0924C145.295 44.8976 142.634 47.1421 139.154 47.1421V47.1566ZM124.982 30.0531C125.79 30.0267 126.598 30.1216 127.379 30.3347V35.3225C127.379 35.3225 123.009 33.8375 120.313 37.0023V51.7486H115.053V30.5841H119.46C119.659 30.5898 119.849 30.6738 119.99 30.819C120.13 30.9641 120.212 31.1593 120.217 31.3645V32.2655C121.464 30.9298 123.154 30.1283 124.949 30.021L124.982 30.0531ZM70.7627 49.7873L69.9418 47.7712L68.6901 44.9072L68.637 44.8525C64.8334 36.3072 60.8284 27.8586 56.6257 19.5143L56.4572 19.1925L55.1618 16.5055C54.6261 15.4054 53.9699 14.3721 53.2062 13.4259C52.3751 12.3463 51.3159 11.4765 50.1094 10.8828C48.9028 10.2892 47.5807 9.98738 46.2438 10.0004C44.916 10.0049 43.6051 10.308 42.4027 10.8885C41.2002 11.469 40.135 12.313 39.2814 13.3616C38.536 14.3216 37.8812 15.3528 37.3258 16.4412L35.8541 19.4113C31.6479 27.8263 27.5869 36.3378 23.8334 44.7496L23.7803 44.8574C23.4682 45.7793 23.0234 46.7238 22.5817 47.731C22.3081 48.3456 22.0344 49.0177 21.7608 49.7471C21.0669 51.6784 20.8429 53.7556 21.1084 55.7968C21.401 57.8467 22.2066 59.7827 23.4458 61.414C24.685 63.0453 26.315 64.3157 28.1753 65.1C29.5702 65.7045 31.0697 66.0105 32.5828 65.9994C33.0542 65.9912 33.5247 65.9552 33.9921 65.8916C35.9108 65.6393 37.7603 64.9903 39.4297 63.9833C41.9654 62.4243 44.2414 60.455 46.1704 58.1508C48.1116 60.4423 50.3855 62.4098 52.9112 63.9833C54.5805 64.9906 56.43 65.6396 58.3488 65.8916C58.8162 65.9552 59.2867 65.9912 59.7581 65.9994C61.2716 66.0157 62.7722 65.7095 64.1656 65.1C66.0259 64.3157 67.6559 63.0453 68.8951 61.414C70.1343 59.7827 70.9399 57.8467 71.2325 55.7968C71.6331 53.7912 71.4613 51.7088 70.7378 49.8018L70.7627 49.7873ZM46.2469 52.7044C43.3128 48.8879 41.4087 45.3095 40.7563 42.2734C40.4898 41.1562 40.4326 39.9968 40.5877 38.8575C40.6954 38.0136 40.9943 37.2078 41.4602 36.5052C42.0051 35.7257 42.725 35.0938 43.5583 34.6634C44.3916 34.2331 45.3135 34.017 46.2454 34.0338C47.1793 33.9967 48.1073 34.2028 48.9436 34.6331C49.78 35.0633 50.4977 35.7038 51.0305 36.4955C51.4964 37.1981 51.7953 38.004 51.903 38.8478C52.0589 39.9871 52.0016 41.1466 51.7344 42.2637C51.082 45.2339 49.1795 48.7688 46.2438 52.6947L46.2469 52.7044ZM67.9441 55.3383C67.7396 56.7735 67.1749 58.1287 66.306 59.2697C65.4371 60.4107 64.2942 61.2979 62.9903 61.8434C61.69 62.4104 60.27 62.6231 58.8669 62.4612C57.4071 62.2751 56.0001 61.7805 54.7341 61.0083C52.4005 59.5558 50.3089 57.7255 48.5396 55.5877C52.1262 51.0439 54.3034 46.8992 55.1227 43.1953C55.4765 41.6327 55.5689 40.0193 55.3959 38.4247C55.1939 37.0535 54.6905 35.748 53.9241 34.6082C53.0623 33.3403 51.9114 32.3103 50.5726 31.6088C49.2339 30.9074 47.7484 30.556 46.2469 30.5857C44.7531 30.566 43.2767 30.9173 41.9424 31.6099C40.608 32.3025 39.455 33.3159 38.5807 34.5647C37.8143 35.7046 37.3109 37.01 37.1089 38.3812C36.879 39.9738 36.972 41.5982 37.382 43.1519C38.203 46.8493 40.4317 51.0552 43.9651 55.5989C42.2083 57.7496 40.1145 59.5818 37.7706 61.0196C36.5046 61.8084 35.0937 62.3179 33.6269 62.5159C32.2254 62.6764 30.8071 62.4831 29.4941 61.9528C28.1903 61.4073 27.0474 60.5201 26.1785 59.3791C25.3096 58.2381 24.7449 56.8829 24.5404 55.4477C24.3685 53.9823 24.5381 52.4958 25.0352 51.1115C25.2037 50.5483 25.4659 50.027 25.7375 49.3223C26.1167 48.4213 26.5584 47.4687 26.9892 46.5146L27.0422 46.4068C30.7973 38.0401 34.8146 29.5367 39.013 21.2311L39.1691 20.8288L40.4738 18.248C40.8972 17.3584 41.4233 16.5248 42.0408 15.7654C42.5769 15.116 43.2434 14.5944 43.9943 14.2367C44.7452 13.879 45.5625 13.6937 46.3897 13.6937C47.2169 13.6937 48.0342 13.879 48.7851 14.2367C49.536 14.5944 50.2026 15.116 50.7387 15.7654C51.3251 16.523 51.8228 17.3493 52.2214 18.2271L53.5261 20.8079L53.6822 21.1297C57.815 29.49 61.8541 37.9999 65.5983 46.3586V46.4133C66.0291 47.3143 66.4192 48.3215 66.85 49.2209C67.1231 49.8935 67.3962 50.4566 67.5523 51.0101C68.0038 52.4055 68.1337 53.8902 67.9316 55.3463L67.9441 55.3383Z" fill="#EA5258"/>
</g>
</g>
<defs>
<filter id="filter0_b_306_1740" x="-13.3333" y="-13.3333" width="242.667" height="102.667" filterUnits="userSpaceOnUse" color-interpolation-filters="sRGB">
<feFlood flood-opacity="0" result="BackgroundImageFix"/>
<feGaussianBlur in="BackgroundImageFix" stdDeviation="6.66667"/>
<feComposite in2="SourceAlpha" operator="in" result="effect1_backgroundBlur_306_1740"/>
<feBlend mode="normal" in="SourceGraphic" in2="effect1_backgroundBlur_306_1740" result="shape"/>
</filter>
<clipPath id="clip0_306_1740">
<rect width="174" height="56" fill="white" transform="translate(21 10)"/>
</clipPath>
</defs>
</svg>
