<svg width="220" height="78" viewBox="0 0 220 78" fill="none" xmlns="http://www.w3.org/2000/svg">
<g filter="url(#filter0_b_306_1724)">
<rect x="1.5" y="1.5" width="217" height="75" rx="37.5" stroke="#213046" stroke-width="3"/>
<g clip-path="url(#clip0_306_1724)">
<mask id="mask0_306_1724" style="mask-type:luminance" maskUnits="userSpaceOnUse" x="22" y="17" width="174" height="44">
<path d="M195.808 17.1104H22.9971V60.7113H195.808V17.1104Z" fill="white"/>
</mask>
<g mask="url(#mask0_306_1724)">
<path d="M57.7012 60.7114H31.9753C27.0257 60.7114 22.9971 56.692 22.9971 51.7347V26.0679C22.9971 21.1298 27.0257 17.1104 31.9753 17.1104H57.7012C62.6699 17.1104 66.6794 21.1298 66.6794 26.0679V51.7347C66.6985 56.692 62.6699 60.7114 57.7012 60.7114Z" fill="#213046"/>
<path fill-rule="evenodd" clip-rule="evenodd" d="M158.585 30.6435C161.405 31.0262 163.304 33.1126 162.921 37.2277C161.982 47.3335 153.195 57.6692 140.188 57.3821L139.785 57.363L139.823 57.2864C152.562 57.3247 160.542 46.6445 161.405 37.1702C161.751 33.457 160.043 31.5622 157.549 31.2176C153.866 30.7009 149.415 32.9403 146.73 36.7299L146.634 36.8639L146.595 36.8066C149.435 32.5192 154.442 30.0693 158.585 30.6435ZM184.733 30.5095C193.367 31.0071 195.86 37.3042 195.803 40.7495C195.649 49.9941 188.436 56.4825 176.1 57.3439L175.717 57.363L175.736 57.3056C187.228 56.4251 194.306 49.0178 194.46 39.8499C194.517 36.7108 192.369 31.3325 184.906 30.6051L184.676 30.586L184.733 30.5095ZM139.114 20.4801C140.399 22.1644 138.807 25.5905 137.905 27.8873L137.867 27.9829L130.749 46.434C130.27 47.659 129.713 49.0371 129.579 50.5299C129.272 53.9943 132.322 56.9801 138.346 57.2864L138.538 57.3056L138.519 57.363C131.517 57.1525 128.159 53.7072 128.486 49.8983C128.62 48.4054 129.08 47.1996 129.521 46.0512L129.579 45.8981L136.658 27.5811C136.735 27.3513 136.811 27.1408 136.907 26.9111L136.984 26.6815C137.022 26.5666 137.061 26.4709 137.118 26.3561L137.195 26.1455C137.962 24.1167 138.595 22.241 137.54 20.9777L137.483 20.9203V20.8246L139.114 20.4801ZM183.468 30.4329L183.447 30.4904C172.704 31.3516 164.878 38.8354 164.706 47.9461C164.647 51.085 166.854 56.5783 174.279 57.2099L174.508 57.229L174.489 57.2864C165.837 56.7887 163.344 50.4343 163.401 46.989C163.554 37.7062 171.439 31.1794 183.468 30.4329ZM156.475 31.8876C158.758 32.2129 160.216 33.8782 159.909 37.1511C159.085 45.9556 151.219 56.9036 140.207 57.1907H139.881L139.9 57.1332C149.952 56.5207 157.703 45.2856 158.47 37.1128C158.739 34.2418 157.415 32.7488 155.458 32.4809C152.619 32.0981 149.128 33.9355 146.902 36.9406L146.806 37.0553L146.768 36.9979C149.185 33.457 153.195 31.4282 156.475 31.8876ZM184.656 30.6626C191.294 31.1985 193.327 35.9643 193.289 38.8736C193.136 47.7929 186.325 56.2529 176.14 57.1716L175.832 57.1907L175.851 57.1332C185.041 56.1954 191.87 46.8168 192.024 37.9549C192.062 35.3519 190.163 31.3707 184.791 30.7391L184.637 30.72L184.656 30.6626ZM142.471 19.791C143.564 21.2648 141.588 25.6288 140.859 27.4853L140.821 27.562L133.109 47.4484C132.629 48.616 131.939 50.3768 131.804 51.8698C131.555 54.7026 133.991 56.8462 138.461 57.1332H138.595L138.576 57.1907C133.166 56.9801 130.423 54.3963 130.692 51.219C130.826 49.7261 131.402 48.2522 131.881 47.0657L131.939 46.9125L139.401 27.6002C140.207 25.6096 141.838 22.0496 140.763 20.327L140.706 20.2504V20.1547L142.471 19.791ZM183.39 30.6051L183.371 30.6626C174.451 31.6005 167.391 41.1513 167.237 49.8409C167.199 52.444 168.791 56.4825 174.412 57.0759L174.584 57.095L174.565 57.1525C167.928 56.7123 165.875 51.7933 165.933 48.884C166.068 39.9455 173.395 31.3516 183.39 30.6051ZM145.924 19.0829C146.48 20.7098 144.197 25.9541 143.737 27.16L143.718 27.1982L135.488 48.4246C135.008 49.6496 134.241 51.6593 134.106 53.1521C133.972 54.7217 134.759 55.8318 136.351 56.406C137.387 56.7887 138.308 56.9227 138.653 56.961H138.691L138.672 57.0185C134.797 56.7505 132.725 55.0088 132.955 52.4631C133.07 51.0659 133.78 49.2476 134.279 48.0226L134.337 47.8886L142.375 27.1408C142.912 25.7628 145.08 20.9203 144.293 19.5614L144.255 19.504V19.4082L145.924 19.0829ZM184.58 30.8349C189.222 31.3516 190.757 34.6438 190.719 36.9979C190.565 45.5918 184.158 55.9658 176.14 56.9994L175.889 57.0185L175.927 56.961C182.93 56.0231 189.3 44.5966 189.453 36.0792C189.491 34.0122 188.224 31.4856 184.676 30.8922L184.542 30.8731L184.58 30.8349ZM154.442 33.1508C156.091 33.3805 157.204 34.6629 156.974 37.0937C156.303 44.4051 149.492 55.6595 140.264 56.961L139.977 56.9994L139.996 56.9419C148.475 55.1619 154.844 43.697 155.478 36.9979C155.669 35.0265 154.787 33.9355 153.367 33.7442C151.391 33.4762 148.878 34.8351 147.056 37.1511L146.96 37.2659L146.921 37.2084C148.821 34.4906 151.928 32.8063 154.442 33.1508ZM78.2805 23.1597C78.2997 23.1788 78.3189 23.1788 78.338 23.198L78.3957 23.2363C79.2973 23.9062 80.314 24.8823 81.2732 29.2654L81.3117 29.4185L87.2587 56.9419H85.9159C85.9159 56.9419 80.0262 29.6673 80.0071 29.629C79.163 25.7819 78.0887 24.1167 75.9593 23.2363L75.8633 23.198V23.1406L78.2805 23.1597ZM82.7504 23.1597C82.7696 23.3128 82.7888 23.4468 82.8079 23.5999L82.8272 23.7148C82.9807 24.844 83.1917 25.9733 83.8822 28.94L83.9207 29.0932L89.9445 56.961H88.6016L82.597 29.1888C81.8104 25.9733 81.5226 24.4804 80.5635 23.2745L80.5058 23.2171V23.1597H82.7504ZM183.314 30.7582L183.275 30.8157C176.523 31.7536 169.885 43.3908 169.731 51.6975C169.693 53.7646 170.959 56.3869 174.508 56.8845L174.624 56.9036L174.584 56.961C170.001 56.5783 168.407 53.0947 168.445 50.7214C168.638 42.2614 175.39 31.6005 183.314 30.7582ZM108.227 34.5671C108.975 34.5671 109.416 34.9882 109.455 35.7921C109.493 36.5003 109.014 37.9549 108.438 39.4479L108.342 39.6967L108.227 39.9839C107.786 41.0939 107.325 42.1849 106.999 42.9888L106.942 43.1036L101.397 56.9419H100.016L105.618 43.0079C106.366 41.1896 108.227 36.9788 108.169 35.8496C108.15 35.3136 107.862 35.1031 107.44 35.1031C106.443 35.1031 104.697 37.5913 103.565 40.1177L103.508 40.2326H103.431C104.582 37.3424 106.481 34.5671 108.227 34.5671ZM109.704 33.5528C111.085 33.5528 111.872 34.414 111.949 35.639C112.045 37.4764 110.529 40.9599 109.627 43.161L109.57 43.2759L104.179 56.9419H102.798L108.304 43.161C109.09 41.0748 110.759 37.3424 110.683 35.6772C110.625 34.6629 110.011 34.0695 108.956 34.0695C106.558 34.0695 104.563 37.0746 103.373 40.0986L103.335 40.2135H103.258C104.371 36.7874 106.711 33.5528 109.704 33.5528ZM112.678 31.4665C115.344 31.4665 116.802 33.1699 116.917 35.3711C117.052 37.8784 116.169 40.3092 115.21 42.74L115.057 43.1036L114.941 43.3716L114.826 43.6395L109.723 56.9419H108.342L113.541 43.5439C114.519 40.9217 115.747 38.0507 115.613 35.4285C115.517 33.457 114.212 32.0025 111.872 32.0025C106.98 32.0025 104.179 35.8303 102.932 40.0986L102.894 40.2326H102.836C103.987 35.5816 107.172 31.4665 112.678 31.4665ZM111.201 32.4809C113.215 32.4809 114.347 33.7633 114.443 35.4667C114.558 37.8209 113.253 40.826 112.313 43.2568L112.256 43.4099L106.999 56.9227H105.56L110.913 43.3525C111.853 40.9982 113.272 37.6295 113.157 35.5625C113.081 34.0695 112.121 32.9977 110.414 32.9977C106.846 32.9977 104.371 36.4237 103.143 40.0795L103.105 40.1943H103.047C104.218 36.2323 106.865 32.4809 111.201 32.4809ZM127.123 30.452C128.888 30.452 130.327 31.5813 130.442 34.0313C130.711 39.0459 126.183 43.1419 121.215 43.9457L121.061 43.965L121.023 43.9075C125.282 42.9505 129.502 39.1034 129.253 34.5671C129.138 32.4234 127.872 31.4091 126.318 31.4091C123.459 31.4091 120.965 33.8207 119.411 37.0171C119.392 37.1702 119.392 37.3424 119.373 37.5147C120.793 34.5671 122.999 32.3087 125.474 32.3087C126.855 32.3087 127.91 33.2082 128.006 35.084C128.217 38.9885 124.553 42.7974 121.023 43.7544L120.908 43.7735L120.85 43.7161C123.766 42.6443 126.989 39.0076 126.816 35.6007C126.74 34.0504 125.838 33.2465 124.668 33.2465C122.519 33.2465 120.601 35.4094 119.277 38.1464C119.239 38.3569 119.219 38.5483 119.181 38.7589C120.351 36.2132 122.059 34.1653 123.824 34.1653C124.879 34.1653 125.57 34.8542 125.627 36.1366C125.78 38.9885 123.21 42.4529 120.831 43.5821L120.754 43.6204L120.697 43.563C122.442 42.4338 124.553 39.0268 124.438 36.6726C124.38 35.7156 123.881 35.1222 123.037 35.1222C121.618 35.1222 120.121 37.1319 119.028 39.4861C118.932 39.869 118.836 40.2326 118.702 40.6155C119.718 38.2611 121.08 36.041 122.155 36.041C122.845 36.041 123.133 36.5195 123.171 37.2084C123.267 38.9503 121.886 42.2232 120.639 43.3908L120.582 43.4481L120.524 43.3908C121.618 41.4384 122.116 39.1416 122.02 37.7635C121.982 37.3999 121.848 36.9788 121.368 36.9788C120.793 36.9788 119.776 38.6631 118.855 40.4815L118.759 40.692L118.663 40.9026C118.625 40.9791 118.586 41.0364 118.567 41.1131L118.51 41.2088C118.26 41.936 117.973 42.6825 117.685 43.4672L117.57 43.7735L112.563 56.9036H111.181L116.227 43.6588C117.301 40.826 118.337 38.376 118.184 35.218C118.049 32.8063 116.419 30.9497 113.445 30.9497C107.287 30.9497 104.064 35.2371 102.836 40.0412L102.798 40.1943H102.74C103.872 35.0074 107.306 30.4329 114.212 30.4329C117.512 30.4329 119.315 32.5192 119.469 35.1796C119.488 35.6007 119.488 36.0027 119.488 36.3855C121.138 32.9786 123.92 30.452 127.123 30.452ZM149.415 18.3747C149.876 18.8723 146.691 26.6432 146.423 27.3513V27.3705L137.847 49.4581C137.425 50.5874 136.466 53.0756 136.332 54.4537C136.217 55.87 137.272 56.5591 138.672 56.827L138.749 56.8462L138.711 56.9036C136.62 56.5783 135.046 55.602 135.2 53.8221C135.315 52.4249 136.121 50.3003 136.6 49.0371L136.639 48.9222L145.022 27.2557C145.233 26.6624 145.866 25.1503 146.442 23.5042L146.538 23.2171C147.113 21.5711 147.631 19.8676 147.631 18.8915V18.8149V18.7383L149.415 18.3747ZM184.504 31.0071C187.189 31.4473 188.224 33.323 188.186 35.1414C188.033 43.4099 182.047 55.7744 176.159 56.8462L175.986 56.8654L176.024 56.8079C180.801 55.9275 186.748 42.3954 186.902 34.2418C186.921 32.7297 186.287 31.6005 184.599 31.122L184.504 31.1029V31.0071ZM152.331 34.3949C153.444 34.548 154.115 35.4476 153.981 36.9597C153.444 42.8165 147.094 54.6833 140.284 56.7505L140.073 56.8079L140.111 56.7314C146.077 54.1474 152.044 42.1275 152.523 36.9406C152.619 35.8112 152.101 35.1031 151.315 35.0074C150.125 34.8351 148.456 35.8687 147.19 37.3615L147.113 37.4573L147.075 37.3999C148.571 35.4285 150.682 34.1653 152.331 34.3949ZM183.237 30.9306L183.199 30.988C178.575 31.9258 172.399 45.7067 172.264 53.5541C172.245 55.0853 172.801 56.3485 174.624 56.7123L174.719 56.7314L174.681 56.7887C171.881 56.4825 170.959 54.4154 170.997 52.5971C171.151 44.52 177.502 31.7727 183.237 30.9306ZM153.022 17.6665L140.207 50.4917C139.727 51.7166 138.634 54.2239 138.519 55.6213C138.48 56.1571 138.653 56.5591 138.826 56.6739L138.845 56.6931L138.807 56.7887C138.691 56.7505 138.615 56.7122 138.519 56.6739C137.924 56.3869 137.464 55.6595 137.483 55.0662C137.54 53.7072 138.519 51.2764 138.998 50.0706L139.037 49.9749L147.766 27.4471C147.842 27.2173 148.821 24.8058 149.722 22.4707L149.818 22.2027C150.586 20.193 151.295 18.3173 151.276 18.0493V18.0302L153.022 17.6665ZM86.4338 23.1597C86.0885 24.289 85.8774 25.935 86.7216 29.4759L86.7599 29.6481L91.7479 53.2096L90.8654 55.0662L85.2635 29.0357C84.6881 26.5092 84.5346 25.2076 84.4961 24.021V23.8679C84.4961 23.7148 84.4961 23.5616 84.4961 23.4085V23.2554V23.1788L86.4338 23.1597ZM90.3473 23.1597V23.2171C89.1195 24.3081 88.7934 26.2412 89.5033 29.897L89.5416 30.0501L93.5511 49.439L92.6494 51.3146L88.122 29.6864C87.3738 26.0308 87.5656 24.5952 88.1987 23.2171L88.218 23.1597H90.3473ZM95.8916 23.1597V23.2171C92.4576 23.8679 91.4601 25.7819 92.3041 30.1458L95.3352 45.6684L94.4336 47.5633L90.9612 30.1841C89.8869 25.112 91.7286 23.6765 92.6687 23.198L92.7262 23.1788L95.8916 23.1597ZM112.486 23.1597V23.2171C107.287 24.7865 104.946 27.7916 100.956 35.2562L100.841 35.4859L100.745 35.4285C104.256 27.9447 105.944 24.8632 108.707 23.198L108.783 23.1406C108.783 23.1597 112.486 23.1597 112.486 23.1597ZM106.251 23.1597V23.2171C105.81 23.8679 105.426 24.5378 104.985 25.4183L104.908 25.5905C104.006 27.4088 102.894 30.0884 100.745 35.1987L100.668 35.3902L100.573 35.3327C102.702 29.3994 103.795 26.4901 103.546 23.3702V23.2554V23.1788C103.527 23.1597 106.251 23.1597 106.251 23.1597ZM101.417 23.1597C103.278 25.0354 102.625 28.1361 100.553 35.0456L100.496 35.2562L100.4 35.1987C102.376 27.3896 101.743 24.3272 98.846 23.2554L98.75 23.2171V23.1597H101.417Z" fill="#213046"/>
<path d="M50.2944 35.3308L50.371 35.3881C52.2127 29.3017 52.8074 26.622 51.1767 24.9761H48.8555V25.0334C51.4453 25.933 52.0401 28.5361 50.2944 35.3308Z" fill="#8EC089"/>
<path fill-rule="evenodd" clip-rule="evenodd" d="M57.6214 24.9761C55.1658 26.3924 53.7078 29.0337 50.6191 35.5413L50.6959 35.5988C54.245 29.0146 56.2593 26.3924 60.8444 25.0334V24.9761H57.6214Z" fill="#2474DE"/>
<path d="M50.449 35.4456L50.5258 35.503C53.4418 28.6701 54.1898 26.8135 55.3985 25.0334V24.9761H53.0389V25.0526C53.2883 27.7705 52.329 30.2778 50.449 35.4456Z" fill="#E85F24"/>
<path fill-rule="evenodd" clip-rule="evenodd" d="M31.0354 24.9761H28.9443V25.0334C30.8628 25.7799 31.7836 27.2154 32.551 30.5649C32.551 30.6032 37.6923 54.0689 37.6923 54.0689H38.8626L33.6828 30.3735C32.7812 26.3158 31.8411 25.5693 31.0354 24.9761Z" fill="#76C5F7"/>
<path fill-rule="evenodd" clip-rule="evenodd" d="M41.9913 52.4228L42.7587 50.8342L38.4231 30.5458C37.6558 27.3876 37.8284 25.9522 38.1545 24.9761H36.4664C36.4472 26.2584 36.5047 27.3111 37.1187 30.0098L41.9913 52.4228Z" fill="#2474DE"/>
<path d="M34.9299 24.9761H32.9731V25.0334C33.8556 26.0862 34.105 27.3685 34.7956 30.1822L40.0137 54.088H41.184L35.9659 30.0864C35.2177 27.024 35.1026 26.1627 34.9299 24.9761Z" fill="#318EEE"/>
<path d="M43.539 49.2074L44.3256 47.5995L40.8341 30.9094C40.1818 27.6747 40.4695 25.9904 41.5439 25.0334V24.9761H39.683C39.1075 26.1818 38.9348 27.3876 39.5872 30.6032L43.539 49.2074Z" fill="#E85F24"/>
<path d="M42.0658 31.0257C41.1258 26.566 42.814 25.3795 43.6005 24.9966H46.363V25.054C43.3704 25.6282 42.507 27.2551 43.2361 31.0257L45.8835 44.3854L45.0969 46.0124L42.0658 31.0257Z" fill="#8EC089"/>
</g>
</g>
</g>
<defs>
<filter id="filter0_b_306_1724" x="-13.3333" y="-13.3333" width="246.667" height="104.667" filterUnits="userSpaceOnUse" color-interpolation-filters="sRGB">
<feFlood flood-opacity="0" result="BackgroundImageFix"/>
<feGaussianBlur in="BackgroundImageFix" stdDeviation="6.66667"/>
<feComposite in2="SourceAlpha" operator="in" result="effect1_backgroundBlur_306_1724"/>
<feBlend mode="normal" in="SourceGraphic" in2="effect1_backgroundBlur_306_1724" result="shape"/>
</filter>
<clipPath id="clip0_306_1724">
<rect width="174" height="56" fill="white" transform="translate(23 11)"/>
</clipPath>
</defs>
</svg>
