<svg width="51" height="41" viewBox="0 0 51 41" fill="none" xmlns="http://www.w3.org/2000/svg">
<path d="M3.14101 40.5203C1.04716 34.5173 0.000244141 28.5642 0.000244141 22.6612C0.000244141 15.8578 1.79496 10.405 5.38441 6.30296C8.97385 2.10082 14.2085 -0.000244141 21.0882 -0.000244141V9.45455C15.8038 9.45455 13.1615 12.8563 13.1615 19.6597V21.9109H22.7334V40.5203H3.14101ZM31.4079 40.5203C29.4137 34.4172 28.4167 28.4642 28.4167 22.6612C28.4167 15.8578 30.1615 10.405 33.6513 6.30296C37.2407 2.10082 42.4753 -0.000244141 49.3551 -0.000244141V9.45455C44.1703 9.45455 41.578 12.8563 41.578 19.6597V21.9109H51.0002V40.5203H31.4079Z" fill="#5C7C8E"/>
</svg>
