<svg width="227" height="24" viewBox="0 0 227 24" fill="none" xmlns="http://www.w3.org/2000/svg">
<path d="M4.23424 23.2409H0.329102V2.44092H4.23424V23.2409ZM15.3742 14.3208H3.90539V11.0117H15.3742V14.3208ZM15.0659 2.44092H18.971V23.2409H15.0659V2.44092Z" fill="#458ACF"/>
<path d="M34.405 23.5493C32.7607 23.5493 31.2603 23.2821 29.8832 22.7477C28.5062 22.2134 27.3141 21.4734 26.2864 20.5074C25.2793 19.5414 24.4777 18.411 23.9228 17.1161C23.3678 15.8213 23.0801 14.4031 23.0801 12.8616C23.0801 11.3201 23.3678 9.90189 23.9228 8.60703C24.4777 7.31217 25.2793 6.18173 26.2864 5.21572C27.2935 4.24972 28.5062 3.5098 29.8832 2.97541C31.2603 2.44102 32.7607 2.17383 34.3844 2.17383C36.0081 2.17383 37.5291 2.44102 38.8856 2.97541C40.2627 3.5098 41.4548 4.24972 42.4619 5.21572C43.469 6.18173 44.2706 7.31217 44.8255 8.60703C45.3805 9.90189 45.6682 11.3201 45.6682 12.8616C45.6682 14.4031 45.3805 15.8418 44.8255 17.1367C44.2706 18.4521 43.469 19.5825 42.4619 20.528C41.4548 21.4734 40.2421 22.2134 38.8856 22.7477C37.5085 23.2821 36.0287 23.5493 34.405 23.5493ZM34.3844 20.158C35.4532 20.158 36.4192 19.973 37.3236 19.6236C38.2279 19.2742 39.0089 18.7604 39.6666 18.0821C40.3243 17.4244 40.8382 16.6434 41.2081 15.7596C41.5781 14.8758 41.7631 13.9098 41.7631 12.841C41.7631 11.7722 41.5781 10.8062 41.2081 9.92244C40.8382 9.03865 40.3243 8.25762 39.6666 7.59991C39.0089 6.94221 38.2279 6.42837 37.3236 6.05841C36.4192 5.709 35.4532 5.52403 34.3844 5.52403C33.3157 5.52403 32.3496 5.709 31.4659 6.05841C30.5821 6.40782 29.801 6.92165 29.1228 7.59991C28.4445 8.27817 27.9307 9.03865 27.5607 9.92244C27.1908 10.8062 27.0058 11.7722 27.0058 12.841C27.0058 13.9098 27.1908 14.8552 27.5607 15.7596C27.9307 16.6434 28.4445 17.4244 29.1022 18.1027C29.7599 18.7604 30.5409 19.2742 31.4453 19.6442C32.3496 19.9936 33.3157 20.1786 34.3844 20.1786V20.158Z" fill="#458ACF"/>
<path d="M56.3162 23.5493C54.6719 23.5493 53.1098 23.3232 51.6094 22.8505C50.109 22.3777 48.917 21.7817 48.0537 21.0623L49.4102 18.0615C50.2529 18.7192 51.2806 19.2536 52.5138 19.7058C53.747 20.1374 55.0213 20.3635 56.3162 20.3635C57.4055 20.3635 58.3098 20.2402 58.9881 20.0141C59.6664 19.7675 60.1596 19.4592 60.4885 19.0481C60.8173 18.637 60.9612 18.1848 60.9612 17.671C60.9612 17.0339 60.7351 16.52 60.2624 16.1501C59.8102 15.7596 59.2142 15.4513 58.4743 15.2252C57.7549 14.9991 56.9328 14.7935 56.049 14.588C55.1652 14.3825 54.2814 14.1564 53.377 13.8892C52.4932 13.622 51.6711 13.2726 50.9517 12.841C50.2324 12.4094 49.6363 11.8544 49.1636 11.135C48.7114 10.4157 48.4648 9.51133 48.4648 8.40145C48.4648 7.29157 48.7731 6.24335 49.3691 5.29789C49.9857 4.35244 50.9106 3.61252 52.1644 3.03702C53.4181 2.48208 55.0007 2.19434 56.9122 2.19434C58.166 2.19434 59.4197 2.35876 60.6529 2.66706C61.8861 2.97536 62.9755 3.44809 63.8798 4.02358L62.6466 7.02437C61.7011 6.46943 60.7351 6.05837 59.7486 5.79117C58.7415 5.52398 57.796 5.38011 56.8711 5.38011C55.7818 5.38011 54.9185 5.50343 54.2608 5.77062C53.5826 6.01726 53.1098 6.36667 52.8015 6.77773C52.4932 7.1888 52.3288 7.66153 52.3288 8.19592C52.3288 8.83307 52.5549 9.3469 53.0071 9.73742C53.4592 10.1279 54.0347 10.4157 54.7747 10.6418C55.494 10.8679 56.3162 11.0734 57.2205 11.2789C58.1249 11.4845 59.0086 11.7105 59.8924 11.9777C60.7762 12.2244 61.5984 12.5738 62.3177 12.9848C63.0371 13.3959 63.6332 13.9714 64.0853 14.6702C64.5375 15.3896 64.7636 16.2939 64.7636 17.3627C64.7636 18.4315 64.4553 19.5003 63.8592 20.4457C63.2426 21.3912 62.3177 22.1311 61.064 22.7066C59.8102 23.2615 58.2276 23.5493 56.2956 23.5493H56.3162Z" fill="#458ACF"/>
<path d="M72.5916 23.2404V5.70841H65.6445V2.44043H83.4437V5.70841H76.4967V23.2404H72.6121H72.5916Z" fill="#458ACF"/>
<path d="M82.3555 23.2409L91.7895 2.44092H95.6124L105.067 23.2409H100.997L92.8788 4.49625H94.4408L86.3634 23.2409H82.3555ZM86.6922 18.4314L87.7404 15.4101H99.0653L100.114 18.4314H86.6922Z" fill="#0C2742"/>
<path d="M107.76 23.2404V2.44043H116.927C119.208 2.44043 121.202 2.87205 122.908 3.75584C124.634 4.61908 125.97 5.83173 126.916 7.37324C127.882 8.91474 128.354 10.744 128.354 12.8404C128.354 14.9369 127.882 16.7456 126.916 18.2871C125.95 19.8491 124.614 21.0618 122.908 21.925C121.181 22.7883 119.187 23.2404 116.927 23.2404H107.76ZM111.644 19.9724H116.742C118.324 19.9724 119.681 19.6641 120.832 19.0887C121.983 18.4926 122.866 17.6705 123.504 16.6017C124.141 15.5329 124.449 14.2792 124.449 12.861C124.449 11.4428 124.141 10.1685 123.504 9.09972C122.866 8.03094 121.983 7.20881 120.832 6.61276C119.681 6.01671 118.324 5.72897 116.742 5.72897H111.644V19.993V19.9724Z" fill="#0C2742"/>
<path d="M138.035 23.2404L128.868 2.44043H133.082L141.262 21.2468H138.837L147.099 2.44043H150.984L141.858 23.2404H138.014H138.035Z" fill="#0C2742"/>
<path d="M153.221 23.2404V2.44043H157.105V23.2404H153.221Z" fill="#0C2742"/>
<path d="M169.257 23.5493C167.612 23.5493 166.05 23.3232 164.55 22.8505C163.049 22.3777 161.857 21.7817 160.994 21.0623L162.351 18.0615C163.193 18.7192 164.221 19.2536 165.454 19.7058C166.687 20.1374 167.962 20.3635 169.257 20.3635C170.346 20.3635 171.23 20.2402 171.929 20.0141C172.607 19.7675 173.1 19.4592 173.429 19.0481C173.758 18.637 173.902 18.1848 173.902 17.671C173.902 17.0339 173.676 16.52 173.203 16.1501C172.751 15.7596 172.155 15.4513 171.415 15.2252C170.675 14.9991 169.873 14.7935 168.989 14.588C168.106 14.3825 167.222 14.1564 166.317 13.8892C165.434 13.622 164.612 13.2726 163.892 12.841C163.173 12.4094 162.577 11.8544 162.104 11.135C161.652 10.4157 161.426 9.51133 161.426 8.40145C161.426 7.29157 161.734 6.24335 162.33 5.29789C162.947 4.35244 163.872 3.61252 165.125 3.03702C166.379 2.48208 167.962 2.19434 169.873 2.19434C171.127 2.19434 172.381 2.35876 173.614 2.66706C174.847 2.97536 175.936 3.44809 176.841 4.02358L175.608 7.02437C174.662 6.46943 173.696 6.05837 172.71 5.79117C171.702 5.52398 170.757 5.38011 169.832 5.38011C168.743 5.38011 167.88 5.50343 167.222 5.77062C166.544 6.01726 166.071 6.36667 165.763 6.77773C165.454 7.1888 165.29 7.66153 165.29 8.19592C165.29 8.83307 165.516 9.3469 165.968 9.73742C166.42 10.1279 166.996 10.4157 167.736 10.6418C168.455 10.8679 169.277 11.0734 170.181 11.2789C171.086 11.4845 171.97 11.7105 172.853 11.9777C173.737 12.2244 174.559 12.5738 175.279 12.9848C176.019 13.3959 176.594 13.9714 177.046 14.6702C177.498 15.3896 177.725 16.2939 177.725 17.3627C177.725 18.4315 177.416 19.5003 176.82 20.4457C176.224 21.3912 175.279 22.1311 174.025 22.7066C172.771 23.2615 171.189 23.5493 169.257 23.5493Z" fill="#0C2742"/>
<path d="M191.432 23.5493C189.788 23.5493 188.288 23.2821 186.911 22.7477C185.534 22.2134 184.341 21.4734 183.314 20.5074C182.286 19.5414 181.505 18.411 180.95 17.1161C180.395 15.8213 180.107 14.4031 180.107 12.8616C180.107 11.3201 180.395 9.90189 180.95 8.60703C181.505 7.31217 182.286 6.18173 183.314 5.21572C184.341 4.24972 185.534 3.5098 186.911 2.97541C188.288 2.44102 189.788 2.17383 191.412 2.17383C193.035 2.17383 194.556 2.44102 195.913 2.97541C197.29 3.5098 198.482 4.24972 199.489 5.21572C200.496 6.18173 201.298 7.31217 201.853 8.60703C202.408 9.90189 202.696 11.3201 202.696 12.8616C202.696 14.4031 202.408 15.8418 201.853 17.1367C201.298 18.4521 200.517 19.5825 199.489 20.528C198.462 21.4734 197.269 22.2134 195.913 22.7477C194.536 23.2821 193.056 23.5493 191.432 23.5493ZM191.412 20.158C192.46 20.158 193.447 19.973 194.351 19.6236C195.255 19.2742 196.036 18.7604 196.694 18.0821C197.352 17.4244 197.866 16.6434 198.235 15.7596C198.605 14.8758 198.79 13.9098 198.79 12.841C198.79 11.7722 198.605 10.8062 198.235 9.92244C197.866 9.03865 197.352 8.25762 196.694 7.59991C196.036 6.94221 195.255 6.42837 194.351 6.05841C193.447 5.709 192.481 5.52403 191.412 5.52403C190.343 5.52403 189.377 5.709 188.493 6.05841C187.609 6.40782 186.828 6.92165 186.15 7.59991C185.472 8.25762 184.958 9.03865 184.588 9.92244C184.218 10.8062 184.033 11.7722 184.033 12.841C184.033 13.9098 184.218 14.8552 184.588 15.7596C184.958 16.6434 185.472 17.4244 186.13 18.1027C186.787 18.7604 187.568 19.2742 188.473 19.6442C189.377 19.9936 190.343 20.1786 191.412 20.1786V20.158Z" fill="#0C2742"/>
<path d="M206.826 23.2404V2.44043H215.459C217.308 2.44043 218.912 2.74873 220.227 3.32422C221.563 3.92027 222.57 4.76296 223.289 5.87284C224.009 6.98272 224.358 8.29814 224.358 9.81909C224.358 11.34 223.988 12.6554 223.289 13.7448C222.57 14.8547 221.542 15.6768 220.227 16.2728C218.912 16.8689 217.308 17.1566 215.459 17.1566H208.984L210.731 15.4096V23.2199H206.847L206.826 23.2404ZM210.731 15.8412L208.984 13.9914H215.274C217 13.9914 218.274 13.6215 219.158 12.8815C220.021 12.1416 220.453 11.1345 220.453 9.81909C220.453 8.50367 220.021 7.476 219.158 6.75663C218.295 6.03727 217 5.68786 215.274 5.68786H208.984L210.731 3.7764V15.8001V15.8412ZM220.556 23.2404L215.253 15.6973H219.425L224.749 23.2404H220.556Z" fill="#0C2742"/>
</svg>
